<svg width="32" height="32" viewBox="0 0 32 32" fill="none" xmlns="http://www.w3.org/2000/svg">
  <!-- 3D Cube with gradient and depth -->
  <defs>
    <!-- Gradient for the main cube face -->
    <linearGradient id="cubeGradient" x1="0%" y1="0%" x2="100%" y2="100%">
      <stop offset="0%" style="stop-color:#3B82F6;stop-opacity:1" />
      <stop offset="50%" style="stop-color:#8B5CF6;stop-opacity:1" />
      <stop offset="100%" style="stop-color:#3B82F6;stop-opacity:1" />
    </linearGradient>
    
    <!-- Gradient for the side face -->
    <linearGradient id="sideGradient" x1="0%" y1="0%" x2="100%" y2="100%">
      <stop offset="0%" style="stop-color:#1E40AF;stop-opacity:1" />
      <stop offset="100%" style="stop-color:#7C3AED;stop-opacity:1" />
    </linearGradient>
    
    <!-- Gradient for the top face -->
    <linearGradient id="topGradient" x1="0%" y1="0%" x2="100%" y2="100%">
      <stop offset="0%" style="stop-color:#60A5FA;stop-opacity:1" />
      <stop offset="100%" style="stop-color:#A78BFA;stop-opacity:1" />
    </linearGradient>
    
    <!-- Drop shadow filter -->
    <filter id="shadow" x="-50%" y="-50%" width="200%" height="200%">
      <feDropShadow dx="2" dy="2" stdDeviation="2" flood-color="#000000" flood-opacity="0.3"/>
    </filter>
  </defs>
  
  <!-- Background circle for better visibility -->
  <circle cx="16" cy="16" r="15" fill="#0F172A" stroke="#1E293B" stroke-width="1"/>
  
  <!-- 3D Cube -->
  <!-- Top face (lighter) -->
  <polygon points="8,12 20,8 24,16 12,20" fill="url(#topGradient)" filter="url(#shadow)"/>
  
  <!-- Front face (main) -->
  <polygon points="8,12 12,20 12,28 8,20" fill="url(#cubeGradient)" filter="url(#shadow)"/>
  
  <!-- Side face (darker) -->
  <polygon points="12,20 24,16 24,24 12,28" fill="url(#sideGradient)" filter="url(#shadow)"/>
  
  <!-- Subtle highlight on top face -->
  <polygon points="8,12 20,8 24,16 12,20" fill="none" stroke="rgba(255,255,255,0.2)" stroke-width="0.5"/>
  
  <!-- Subtle highlight on front face -->
  <polygon points="8,12 12,20 12,28 8,20" fill="none" stroke="rgba(255,255,255,0.15)" stroke-width="0.5"/>
</svg> 